<?xml version="1.0" encoding="utf-8"?>
<!-- Generator: Adobe Illustrator 16.0.0, SVG Export Plug-In . SVG Version: 6.00 Build 0)  -->
<!DOCTYPE svg PUBLIC "-//W3C//DTD SVG 1.1//EN" "http://www.w3.org/Graphics/SVG/1.1/DTD/svg11.dtd">
<svg version="1.1" id="Layer_1" xmlns="http://www.w3.org/2000/svg" xmlns:xlink="http://www.w3.org/1999/xlink" x="0px" y="0px"
	 width="60px" height="60px" viewBox="0 0 60 60" enable-background="new 0 0 60 60" xml:space="preserve">
<circle fill="#282828" cx="30" cy="30" r="30"/>
<g>
	<path fill="#FFFFFF" d="M34.757,43.244C35.843,44.33,37.343,45,39.002,45C42.312,45,45,42.316,45,39.002
		c0-1.665-0.67-3.154-1.757-4.243L25.244,16.757C24.157,15.67,22.655,15,20.998,15C17.687,15,15,17.688,15,20.999
		c0,1.663,0.67,3.155,1.757,4.241L34.757,43.244z"/>
	<path fill="#FFFFFF" d="M27.001,39.002c0,3.314-2.689,5.998-6.004,5.998C17.687,45,15,42.316,15,39.002s2.687-6.001,5.998-6.001
		C24.312,33.001,27.001,35.688,27.001,39.002z"/>
	<path fill="#FFFFFF" d="M45,20.999c0,3.313-2.688,5.999-5.998,5.999c-3.314,0-6.002-2.686-6.002-5.999
		C33,17.688,35.688,15,39.002,15C42.312,15,45,17.688,45,20.999z"/>
</g>
</svg>
