<?xml version="1.0" encoding="utf-8"?>
<!-- Generator: Adobe Illustrator 16.0.0, SVG Export Plug-In . SVG Version: 6.00 Build 0)  -->
<!DOCTYPE svg PUBLIC "-//W3C//DTD SVG 1.1//EN" "http://www.w3.org/Graphics/SVG/1.1/DTD/svg11.dtd">
<svg version="1.1" id="Layer_1" xmlns="http://www.w3.org/2000/svg" xmlns:xlink="http://www.w3.org/1999/xlink" x="0px" y="0px"
	 width="360px" height="60px" viewBox="0 0 360 60" enable-background="new 0 0 360 60" xml:space="preserve">
<g id="Layer_1_1_">
	<path fill="#282828" d="M90,0C73.433,0,60,13.433,60,30c0,16.568,13.433,30,30,30s30-13.432,30-30C120,13.429,106.567,0,90,0z
		 M104.927,23.266l0.022,0.956c0,9.762-7.431,21.012-21.018,21.012c-4.169,0-8.051-1.223-11.321-3.317
		c0.578,0.065,1.166,0.106,1.764,0.106c3.461,0,6.645-1.184,9.172-3.159c-3.232-0.06-5.959-2.197-6.9-5.132
		c0.455,0.084,0.912,0.127,1.393,0.127c0.676,0,1.327-0.088,1.946-0.256c-3.378-0.682-5.926-3.664-5.926-7.24v-0.094
		c0.998,0.555,2.134,0.886,3.346,0.927c-1.981-1.324-3.285-3.586-3.285-6.147c0-1.353,0.362-2.62,0.998-3.711
		c3.64,4.47,9.086,7.41,15.224,7.718c-0.128-0.54-0.19-1.108-0.19-1.685c0-4.076,3.307-7.383,7.387-7.383
		c2.123,0,4.043,0.896,5.394,2.331c1.681-0.334,3.263-0.949,4.691-1.791c-0.553,1.725-1.722,3.171-3.248,4.087
		c1.49-0.176,2.919-0.579,4.24-1.163C107.626,20.929,106.369,22.231,104.927,23.266z"/>
</g>
<g id="Layer_2">
	<path fill="#282828" d="M30,0C13.433,0,0,13.433,0,30c0,16.566,13.433,30,30,30s30-13.434,30-30C60,13.429,46.567,0,30,0z
		 M37.756,29.996L32.838,30l-0.004,17.999h-6.745V30h-4.501v-6.202l4.501-0.004l-0.008-3.653c0-5.063,1.372-8.141,7.332-8.141h4.966
		v6.205h-3.105c-2.322,0-2.436,0.866-2.436,2.483l-0.007,3.105h5.581L37.756,29.996z"/>
	<path fill="#282828" d="M145.605,47.939c0,4.397-2.719,7.873-10.416,8.153c-4.511-2.565-8.29-6.266-10.951-10.715
		c1.389-3.428,5.725-6.037,10.683-5.981c1.407,0.016,2.72,0.239,3.911,0.627c3.275,2.276,5.918,3.699,6.581,6.295
		C145.537,46.844,145.605,47.385,145.605,47.939z M150,0c-8.669,0-16.477,3.679-21.953,9.556c2.164-1.197,4.719-1.912,7.436-1.912
		c3.93,0,15.025,0,15.025,0l-3.357,3.523h-3.944c2.783,1.596,4.263,4.879,4.263,8.498c0,3.322-1.84,5.998-4.439,8.029
		c-2.537,1.982-3.018,2.811-3.018,4.498c0,1.438,3.03,3.58,4.424,4.625c4.854,3.641,5.834,5.93,5.834,10.479
		c0,4.613-4.039,9.207-10.891,10.769C142.682,59.314,146.26,60,150,60c16.568,0,30-13.432,30-30.001C180,13.431,166.568,0,150,0z
		 M165,22.499v7.5h-3.75v-7.5h-7.5v-3.75h7.5v-7.5H165v7.5h7.5v3.75H165z M141.432,19.892c0.698,5.318-1.633,8.74-5.68,8.619
		c-4.051-0.121-7.899-3.836-8.599-9.154c-0.698-5.318,2.017-9.389,6.066-9.27C137.268,10.21,140.732,14.573,141.432,19.892z
		 M132.941,37.621c-4.375,0-8.093,1.51-10.713,3.742C120.793,37.859,120,34.021,120,29.999c0-3.324,0.542-6.525,1.541-9.516
		c0.432,5.828,4.532,10.324,11.307,10.324c0.499,0,0.982-0.024,1.458-0.059c-0.466,0.893-0.798,1.886-0.798,2.929
		c0,1.757,0.966,2.759,2.16,3.921C134.766,37.598,133.895,37.621,132.941,37.621z"/>
	<path fill="#282828" d="M270,60c-2.76,0-5.42-0.359-7.98-1.08c-2.561-0.719-4.949-1.729-7.17-3.029s-4.24-2.858-6.061-4.68
		c-1.819-1.82-3.379-3.84-4.68-6.061c-1.301-2.222-2.312-4.609-3.029-7.172C240.359,35.42,240,32.761,240,30
		c0-2.76,0.359-5.42,1.08-7.979c0.719-2.561,1.729-4.95,3.029-7.17c1.301-2.221,2.859-4.24,4.68-6.061
		c1.82-1.82,3.84-3.38,6.061-4.68c2.221-1.3,4.609-2.311,7.17-3.03C264.581,0.361,267.24,0,270,0c4.119,0,8.01,0.79,11.67,2.37
		s6.84,3.72,9.539,6.42c2.701,2.7,4.84,5.88,6.42,9.54S300,25.88,300,30c0,2.761-0.359,5.42-1.08,7.979
		c-0.721,2.562-1.73,4.95-3.029,7.172c-1.301,2.221-2.86,4.24-4.682,6.061c-1.818,1.82-3.84,3.381-6.059,4.68
		c-2.221,1.301-4.611,2.312-7.172,3.029C275.42,59.641,272.76,60,270,60z M284.459,17.641H256.02c-0.279,0-0.52,0.09-0.721,0.27
		C255.1,18.09,255,18.34,255,18.66v3.18c0,0.16,0.061,0.24,0.18,0.24l14.939,8.521l0.121,0.06c0.078,0,0.14-0.021,0.18-0.06
		l14.461-8.521c0.078-0.04,0.139-0.06,0.18-0.06c0.039,0,0.101-0.021,0.181-0.061c0.159,0,0.239-0.08,0.239-0.239v-3.06
		c0-0.32-0.102-0.57-0.301-0.75C284.98,17.73,284.74,17.641,284.459,17.641z M264.061,30.42c0.039-0.04,0.06-0.101,0.06-0.18
		c0-0.12-0.039-0.181-0.119-0.181l-8.58-4.92c-0.121-0.039-0.221-0.039-0.301,0c-0.08,0-0.119,0.061-0.119,0.18v12.9
		c0,0.121,0.06,0.2,0.181,0.24h0.118c0.08,0,0.121-0.02,0.121-0.061L264.061,30.42z M274.5,31.38
		c-0.041-0.12-0.141-0.14-0.301-0.062l-3.301,1.921c-0.398,0.239-0.818,0.239-1.26,0l-2.88-1.619c-0.12-0.08-0.221-0.08-0.301,0
		l-10.979,10.2c-0.039,0.041-0.06,0.121-0.06,0.24c0,0.041,0.039,0.1,0.119,0.18c0.239,0.08,0.399,0.121,0.479,0.121h28.142
		c0.08,0,0.159-0.041,0.239-0.121c0-0.16-0.021-0.26-0.061-0.299L274.5,31.38z M285.299,24.899h-0.238l-8.16,4.86
		c-0.08,0-0.121,0.06-0.121,0.181c-0.038,0.039-0.02,0.1,0.062,0.18l8.16,8.819c0.08,0.08,0.142,0.119,0.181,0.119h0.118
		c0.121-0.119,0.183-0.199,0.183-0.238V25.14C285.48,25.06,285.42,24.979,285.299,24.899z"/>
	<path fill="#282828" d="M210,0c-16.568,0-30,13.432-30,30c0,16.568,13.432,30,30,30s30-13.432,30-30C240,13.432,226.568,0,210,0z
		 M198.75,45c-2.07,0-3.75-1.679-3.75-3.75s1.68-3.75,3.75-3.75s3.75,1.679,3.75,3.75S200.82,45,198.75,45z M209.062,45
		c0-7.754-6.31-14.062-14.062-14.062v-5.625c10.855,0,19.688,8.832,19.688,19.688L209.062,45L209.062,45z M220.312,45
		c0-6.761-2.633-13.117-7.414-17.898S201.761,19.688,195,19.688v-5.625c8.264,0,16.033,3.218,21.877,9.062
		c5.842,5.843,9.061,13.612,9.061,21.876L220.312,45L220.312,45z"/>
	<path fill="#282828" d="M321.84,21.78c0.76-0.76,1.61-1.32,2.551-1.68c0.939-0.36,1.91-0.54,2.91-0.54s1.969,0.18,2.91,0.54
		c0.939,0.36,1.789,0.92,2.549,1.68c0.762,0.76,1.33,1.61,1.711,2.55c0.38,0.94,0.57,1.9,0.57,2.88s-0.19,1.94-0.57,2.88
		c-0.381,0.939-0.949,1.79-1.711,2.551c-0.76,0.76-1.608,1.33-2.549,1.709c-0.941,0.381-1.91,0.57-2.91,0.57s-1.971-0.189-2.91-0.57
		c-0.939-0.379-1.791-0.949-2.551-1.709c-0.76-0.761-1.32-1.61-1.68-2.551c-0.359-0.94-0.54-1.9-0.54-2.88s0.181-1.94,0.54-2.88
		C320.519,23.39,321.08,22.54,321.84,21.78z M302.37,18.33c1.58-3.66,3.72-6.84,6.42-9.54s5.88-4.84,9.54-6.42S325.881,0,330,0
		c2.76,0,5.42,0.36,7.98,1.08c2.56,0.72,4.948,1.73,7.17,3.03c2.22,1.3,4.239,2.86,6.061,4.68c1.819,1.82,3.379,3.84,4.68,6.06
		c1.301,2.22,2.311,4.61,3.029,7.17c0.721,2.56,1.08,5.22,1.08,7.98s-0.359,5.42-1.08,7.98c-0.72,2.56-1.729,4.948-3.029,7.17
		c-1.301,2.221-2.859,4.24-4.68,6.061s-3.841,3.379-6.061,4.68c-2.222,1.299-4.61,2.31-7.17,3.029C335.42,59.641,332.76,60,330,60
		s-5.42-0.359-7.979-1.08c-2.562-0.719-4.95-1.73-7.172-3.029c-2.219-1.301-4.239-2.858-6.06-4.68c-1.82-1.82-3.38-3.84-4.681-6.061
		c-1.299-2.222-2.31-4.61-3.029-7.17C300.359,35.42,300,32.76,300,30C300,25.88,300.79,21.99,302.37,18.33z M314.49,32.43
		c0.66,1.7,1.67,3.23,3.028,4.59c1.08,1.08,2.291,1.951,3.632,2.61c1.34,0.66,2.72,1.09,4.14,1.29
		c1.421,0.201,2.841,0.18,4.261-0.059c1.42-0.241,2.789-0.701,4.109-1.381l6.24,6.239c0.68,0.72,1.528,1.08,2.55,1.08
		c1.021,0,1.87-0.36,2.55-1.08c0.721-0.68,1.08-1.521,1.08-2.521c0-0.998-0.359-1.859-1.08-2.579l-6-6
		c0.84-1.319,1.43-2.74,1.77-4.26c0.342-1.52,0.432-3.05,0.271-4.59c-0.159-1.54-0.569-3.02-1.229-4.44
		c-0.659-1.42-1.569-2.71-2.729-3.87c-1.359-1.36-2.89-2.37-4.59-3.03c-1.7-0.66-3.431-0.99-5.189-0.99
		c-1.761,0-3.49,0.33-5.189,0.99c-1.7,0.66-3.229,1.67-4.592,3.03c-1.358,1.36-2.368,2.89-3.028,4.59c-0.66,1.7-0.99,3.43-0.99,5.19
		C313.5,29,313.83,30.73,314.49,32.43z"/>
</g>
</svg>
